nColumns=19
nRows=90
DataType=double
version=3
OpenSimVersion=4.1
endheader
time	ground_force_1_vx	ground_force_1_vy	ground_force_1_vz	ground_force_1_px	ground_force_1_py	ground_force_1_pz	ground_force_1_mx	ground_force_1_my	ground_force_1_mz	ground_force_2_vx	ground_force_2_vy	ground_force_2_vz	ground_force_2_px	ground_force_2_py	ground_force_2_pz	ground_force_2_mx	ground_force_2_my	ground_force_2_mz
2.7	39.1638	48.1702	6.74902	0.374945	0	-0.233596	0	-1.65493	0	0	0	0	0.000309997	0	-0.000543893	0	0	0
2.70833	16.8573	21.6276	5.08392	0.403987	0	-0.148204	0	-1.73776	0	0	0	0	0.000310022	0	-0.000543877	0	0	0
2.71667	0	0	0	0.000309572	0	-0.000544038	0	0	0	0	0	0	0.000310048	0	-0.00054386	0	0	0
2.725	0	0	0	0.000309599	0	-0.000544022	0	0	0	0	0	0	0.000310074	0	-0.000543844	0	0	0
2.73333	0	0	0	0.000309625	0	-0.000544005	0	0	0	0	0	0	0.000310101	0	-0.000543827	0	0	0
2.74167	0	0	0	0.000309652	0	-0.000543988	0	0	0	0	0	0	0.000310127	0	-0.00054381	0	0	0
2.75	0	0	0	0.000309679	0	-0.000543971	0	0	0	0	0	0	0.000310154	0	-0.000543793	0	0	0
2.75833	0	0	0	0.000309706	0	-0.000543954	0	0	0	0	0	0	0.000310181	0	-0.000543776	0	0	0
2.76667	0	0	0	0.000309733	0	-0.000543936	0	0	0	0	0	0	0.000310208	0	-0.000543758	0	0	0
2.775	0	0	0	0.000309761	0	-0.000543919	0	0	0	0	0	0	0.000310235	0	-0.000543741	0	0	0
2.78333	0	0	0	0.000309789	0	-0.000543901	0	0	0	-3.4398	15.8433	-2.20792	0.992374	0	-0.267424	0	-0.4585	0
2.79167	0	0	0	0.000309817	0	-0.000543883	0	0	0	-16.1	46.4773	-4.21441	0.934526	0	-0.390753	0	-0.798311	0
2.8	0	0	0	0.000309845	0	-0.000543866	0	0	0	-45.5015	139.943	-3.70207	0.911787	0	-0.431118	0	-1.52495	0
2.80833	0	0	0	0.000309874	0	-0.000543848	0	0	0	-94.5837	351.298	3.64213	0.912883	0	-0.437849	0	-2.46729	0
2.81667	0	0	0	0.000309902	0	-0.000543829	0	0	0	-148.342	684.744	19.6823	0.917081	0	-0.432294	0	-3.31987	0
2.825	0	0	0	0.000309931	0	-0.000543811	0	0	0	-181.737	1024.84	37.0034	0.914455	0	-0.42405	0	-3.77515	0
2.83333	0	0	0	0.00030996	0	-0.000543793	0	0	0	-192.471	1239.79	40.2841	0.90151	0	-0.419666	0	-3.72313	0
2.84167	0	0	0	0.000309989	0	-0.000543774	0	0	0	-204.135	1332.71	23.9294	0.879323	0	-0.422567	0	-3.38957	0
2.85	0	0	0	0.000310019	0	-0.000543756	0	0	0	-225.766	1390.42	5.88418	0.853157	0	-0.429091	0	-3.25732	0
2.85833	0	0	0	0.000310048	0	-0.000543737	0	0	0	-240.102	1473.34	10.8779	0.826465	0	-0.431463	0	-3.76189	0
2.86667	0	0	0	0.000310078	0	-0.000543718	0	0	0	-224.552	1575.88	40.2927	0.797541	0	-0.429081	0	-4.98039	0
2.875	0	0	0	0.000310108	0	-0.000543699	0	0	0	-173.069	1657.18	70.1756	0.765007	0	-0.427687	0	-6.57475	0
2.88333	0	0	0	0.000310138	0	-0.00054368	0	0	0	-99.2537	1689	80.0791	0.729849	0	-0.430248	0	-8.01673	0
2.89167	0	0	0	0.000310168	0	-0.000543661	0	0	0	-21.7597	1672.64	73.2053	0.694182	0	-0.434266	0	-8.8723	0
2.9	0	0	0	0.000310198	0	-0.000543642	0	0	0	45.9231	1621.67	64.5881	0.660276	0	-0.435882	0	-8.93098	0
2.90833	0	0	0	0.000310229	0	-0.000543623	0	0	0	104.211	1536.92	59.3996	0.6281	0	-0.434676	0	-8.17398	0
2.91667	0	0	0	0.000310259	0	-0.000543604	0	0	0	161.122	1409.47	50.799	0.594497	0	-0.433227	0	-6.71059	0
2.925	0	0	0	0.00031029	0	-0.000543584	0	0	0	212.513	1238.65	33.9165	0.557936	0	-0.433202	0	-4.75606	0
2.93333	0	0	0	0.000310321	0	-0.000543565	0	0	0	243.533	1036.17	13.0753	0.522436	0	-0.433506	0	-2.61511	0
2.94167	0	0	0	0.000310352	0	-0.000543545	0	0	0	246.295	817.398	-4.50329	0.492659	0	-0.432321	0	-0.624241	0
2.95	0	0	0	0.000310383	0	-0.000543525	0	0	0	226.421	600.103	-16.0704	0.468545	0	-0.429004	-0	0.929349	-0
2.95833	0	0	0	0.000310414	0	-0.000543506	0	0	0	190.544	403.473	-22.7553	0.447619	0	-0.424401	-0	1.86422	-0
2.96667	0	0	0	0.000310445	0	-0.000543486	0	0	0	141.422	242.406	-25.2639	0.426673	0	-0.420976	-0	2.1203	-0
2.975	0	0	0	0.000310477	0	-0.000543466	0	0	0	87.0473	126.603	-23.1015	0.401092	0	-0.42007	-0	1.75108	-0
2.98333	0	0	0	0.000310508	0	-0.000543446	0	0	0	42.8252	57.9784	-17.0684	0.379094	0	-0.410306	-0	0.905672	-0
2.99167	0	0	0	0.00031054	0	-0.000543426	0	0	0	18.7911	27.131	-10.0361	0.437573	0	-0.346341	0	-0.203626	0
3	0	0	0	0.000310571	0	-0.000543406	0	0	0	9.45695	16.1531	-4.72255	0.638398	0	-0.221218	0	-1.34931	0
3.00833	0	0	0	0.000310603	0	-0.000543386	0	0	0	3.9034	10.6764	-1.88469	0.896127	0	-0.0956442	0	-2.33623	0
3.01667	0	0	0	0.000310635	0	-0.000543366	0	0	0	0	0	0	0.000311102	0	-0.000543189	0	0	0
3.025	0	0	0	0.000310667	0	-0.000543346	0	0	0	0	0	0	0.000311134	0	-0.000543168	0	0	0
3.03333	0	0	0	0.000310699	0	-0.000543325	0	0	0	0	0	0	0.000311166	0	-0.000543148	0	0	0
3.04167	0	0	0	0.000310731	0	-0.000543305	0	0	0	0	0	0	0.000311197	0	-0.000543128	0	0	0
3.05	0	0	0	0.000310763	0	-0.000543285	0	0	0	0	0	0	0.000311229	0	-0.000543108	0	0	0
3.05833	0	0	0	0.000310795	0	-0.000543264	0	0	0	0	0	0	0.000311261	0	-0.000543087	0	0	0
3.06667	0	0	0	0.000310827	0	-0.000543244	0	0	0	0	0	0	0.000311293	0	-0.000543067	0	0	0
3.075	-3.96618	19.1429	-2.55289	0.794116	0	-0.168135	-0	1.4563	-0	0	0	0	0.000311325	0	-0.000543047	0	0	0
3.08333	-16.4417	46.3269	-7.023	0.83237	0	-0.274838	-0	2.12053	-0	0	0	0	0.000311357	0	-0.000543026	0	0	0
3.09167	-45.1478	122.575	-12.9184	0.874546	0	-0.322583	-0	2.12006	-0	0	0	0	0.000311389	0	-0.000543006	0	0	0
3.1	-86.1287	297.474	-16.6921	0.898176	0	-0.335925	-0	1.31325	-0	0	0	0	0.000311421	0	-0.000542985	0	0	0
3.10833	-123.722	588.349	-13.0867	0.903934	0	-0.338564	0	-0.231571	0	0	0	0	0.000311453	0	-0.000542965	0	0	0
3.11667	-145.197	914.538	-0.074333	0.898304	0	-0.338337	0	-2.19424	0	0	0	0	0.000311485	0	-0.000542945	0	0	0
3.125	-160.733	1153.44	15.6261	0.884935	0	-0.337592	0	-4.07049	0	0	0	0	0.000311517	0	-0.000542924	0	0	0
3.13333	-188.124	1283.27	21.9516	0.864965	0	-0.337842	0	-5.34891	0	0	0	0	0.000311549	0	-0.000542904	0	0	0
3.14167	-215.863	1374.32	14.4503	0.838988	0	-0.339507	0	-5.70806	0	0	0	0	0.000311581	0	-0.000542883	0	0	0
3.15	-218.128	1480.36	1.98432	0.809409	0	-0.340557	0	-5.10945	0	0	0	0	0.000311613	0	-0.000542863	0	0	0
3.15833	-190.756	1596.87	-4.35614	0.779137	0	-0.33943	0	-3.74212	0	0	0	0	0.000311645	0	-0.000542842	0	0	0
3.16667	-145.14	1690.05	-4.03068	0.749414	0	-0.337157	0	-1.89808	0	0	0	0	0.000311677	0	-0.000542822	0	0	0
3.175	-90.3411	1732.26	-4.52527	0.719749	0	-0.335345	-0	0.112901	-0	0	0	0	0.000311709	0	-0.000542802	0	0	0
3.18333	-31.8541	1714.49	-9.4504	0.688867	0	-0.334335	-0	1.98629	-0	0	0	0	0.000311741	0	-0.000542781	0	0	0
3.19167	26.2601	1645.24	-14.589	0.655796	0	-0.333308	-0	3.43968	-0	0	0	0	0.000311773	0	-0.000542761	0	0	0
3.2	82.9688	1539.74	-14.6766	0.621207	0	-0.331653	-0	4.26333	-0	0	0	0	0.000311805	0	-0.00054274	0	0	0
3.20833	138.39	1407.67	-9.19841	0.586731	0	-0.32992	-0	4.3791	-0	0	0	0	0.000311837	0	-0.00054272	0	0	0
3.21667	186.881	1251.46	-0.869295	0.553236	0	-0.328917	-0	3.86158	-0	0	0	0	0.000311869	0	-0.0005427	0	0	0
3.225	219.887	1072.74	7.95169	0.520943	0	-0.32859	-0	2.90768	-0	0	0	0	0.000311901	0	-0.000542679	0	0	0
3.23333	232.945	878.031	15.7892	0.490195	0	-0.328218	-0	1.77376	-0	0	0	0	0.000311933	0	-0.000542659	0	0	0
3.24167	226.446	676.778	21.1079	0.460145	0	-0.327079	-0	0.705316	-0	0	0	0	0.000311964	0	-0.000542639	0	0	0
3.25	202.912	482.644	22.5645	0.428675	0	-0.324865	0	-0.122251	0	0	0	0	0.000311996	0	-0.000542619	0	0	0
3.25833	164.496	313.369	20.0794	0.395697	0	-0.321488	0	-0.636528	0	0	0	0	0.000312028	0	-0.000542599	0	0	0
3.26667	115.957	182.538	15.1537	0.367636	0	-0.31593	0	-0.86552	0	0	0	0	0.000312059	0	-0.000542579	0	0	0
3.275	68.2632	94.2104	9.96357	0.364275	0	-0.303541	0	-0.903249	0	0	0	0	0.000312091	0	-0.000542559	0	0	0
3.28333	33.2702	43.747	6.05057	0.437752	0	-0.268706	0	-0.860533	0	0	0	0	0.000312122	0	-0.000542539	0	0	0
3.29167	13.9723	20.0091	3.72678	0.662484	0	-0.180746	0	-0.822236	0	0	0	0	0.000312153	0	-0.000542519	0	0	0
3.3	5.19755	10.3411	2.52687	0.88762	0	-0.0418257	0	-0.825191	0	0	0	0	0.000312184	0	-0.000542499	0	0	0
3.30833	0	0	0	0.000311757	0	-0.000542655	0	0	0	0	0	0	0.000312215	0	-0.000542479	0	0	0
3.31667	0	0	0	0.000311788	0	-0.000542636	0	0	0	0	0	0	0.000312246	0	-0.00054246	0	0	0
3.325	0	0	0	0.000311819	0	-0.000542616	0	0	0	0	0	0	0.000312277	0	-0.00054244	0	0	0
3.33333	0	0	0	0.00031185	0	-0.000542596	0	0	0	0	0	0	0.000312308	0	-0.00054242	0	0	0
3.34167	0	0	0	0.000311881	0	-0.000542577	0	0	0	0	0	0	0.000312338	0	-0.000542401	0	0	0
3.35	0	0	0	0.000311911	0	-0.000542557	0	0	0	0	0	0	0.000312369	0	-0.000542381	0	0	0
3.35833	0	0	0	0.000311942	0	-0.000542538	0	0	0	0	0	0	0.000312399	0	-0.000542362	0	0	0
3.36667	0	0	0	0.000311972	0	-0.000542519	0	0	0	-3.57358	15.4406	-2.17803	0.731011	0	-0.222766	0	-0.388635	0
3.375	0	0	0	0.000312003	0	-0.0005425	0	0	0	-14.8833	39.2812	-5.06836	0.827471	0	-0.360073	0	-0.698714	0
3.38333	0	0	0	0.000312033	0	-0.00054248	0	0	0	-43.4531	113.926	-7.36799	0.895673	0	-0.412367	0	-1.2091	0
3.39167	0	0	0	0.000312063	0	-0.000542461	0	0	0	-91.0623	290.166	-5.6516	0.92155	0	-0.422361	0	-1.79356	0
3.4	0	0	0	0.000312093	0	-0.000542443	0	0	0	-139.906	582.86	2.72549	0.930033	0	-0.418295	0	-2.25081	0
3.40833	0	0	0	0.000312122	0	-0.000542424	0	0	0	-163.442	901.411	13.6353	0.925792	0	-0.411005	0	-2.3945	0
3.41667	0	0	0	0.000312152	0	-0.000542405	0	0	0	-162.512	1118.9	15.4511	0.90896	0	-0.406845	0	-2.19102	0
3.425	0	0	0	0.000312181	0	-0.000542387	0	0	0	-165.767	1224.87	2.27586	0.883487	0	-0.409631	0	-1.85639	0
3.43333	0	0	0	0.00031221	0	-0.000542368	0	0	0	-185.971	1301.09	-12.4805	0.858008	0	-0.416431	0	-1.79132	0
3.44167	0	0	0	0.000312239	0	-0.00054235	0	0	0	-206.058	1406.44	-7.37385	0.836343	0	-0.419413	0	-2.33723	0
